HIERARCHY
ROOT Hips
{
	OFFSET 0.000000 0.000000 0.000000
	CHANNELS 6 Xposition Yposition Zposition Zrotation Yrotation Xrotation 
	JOINT LHipJoint
	{
		OFFSET 0.000000 0.000000 0.000000
		CHANNELS 3 Zrotation Yrotation Xrotation
		JOINT LeftUpLeg
		{
			OFFSET 1.363060 -1.794630 0.839290
			CHANNELS 3 Zrotation Yrotation Xrotation
			JOINT LeftLeg
			{
				OFFSET 2.448110 -6.726130 0.000000
				CHANNELS 3 Zrotation Yrotation Xrotation
				JOINT LeftFoot
				{
					OFFSET 2.562200 -7.039590 0.000000
					CHANNELS 3 Zrotation Yrotation Xrotation
					JOINT LeftToeBase
					{
						OFFSET 0.157640 -0.433110 2.322550
						CHANNELS 3 Zrotation Yrotation Xrotation
						End Site
						{
							OFFSET 0.000000 0.000000 0.000000
						}
					}
				}
			}
		}
	}
	JOINT RHipJoint
	{
		OFFSET 0.000000 0.000000 0.000000
		CHANNELS 3 Zrotation Yrotation Xrotation
		JOINT RightUpLeg
		{
			OFFSET -1.305520 -1.794630 0.839290
			CHANNELS 3 Zrotation Yrotation Xrotation
			JOINT RightLeg
			{
				OFFSET -2.542530 -6.985550 0.000000
				CHANNELS 3 Zrotation Yrotation Xrotation
				JOINT RightFoot
				{
					OFFSET -2.568260 -7.056230 0.000000
					CHANNELS 3 Zrotation Yrotation Xrotation
					JOINT RightToeBase
					{
						OFFSET -0.164730 -0.452590 2.363150
						CHANNELS 3 Zrotation Yrotation Xrotation
						End Site
						{
							OFFSET 0.000000 0.000000 0.000000
						}
					}
				}
			}
		}
	}
}
MOTION
Frames: 22
Frame Time: 0.008333
-1.770518 17.540801 0.173778 17.175427 83.915314 35.725479 -10.783846 0.245826 -1.499819 -10.997124 3.806600 -38.152547 -0.344309 2.815069 50.804592 2.879295 17.211419 -3.983481 1.359400 0.000000 -27.838100 8.630927 -0.770656 0.395471 8.500389 1.459728 -14.838869 2.695936 1.055881 3.997706 -0.511148 -1.856501 -3.356716 -0.527700 -0.000000 -36.677400
-1.561337 17.551250 0.211682 19.618239 83.861684 38.171928 -10.603592 0.137109 -1.313071 -11.355857 3.416612 -38.830302 -0.507454 2.628688 48.465470 2.890456 17.034928 -4.367938 1.282401 0.000000 -27.732400 8.737835 -0.846195 0.344743 8.245561 0.970361 -13.457861 2.671688 1.154153 2.604832 -0.466983 -1.755851 -2.928382 -0.539400 0.000000 -37.100700
-1.353054 17.555390 0.246542 21.206023 83.795762 39.755596 -10.426213 0.038542 -1.124907 -11.606925 3.064570 -39.416246 -0.673232 2.434443 45.942442 2.901247 16.858298 -4.606468 1.250600 -0.000001 -27.792300 8.837304 -0.916852 0.277303 8.066307 0.498238 -12.122573 2.651911 1.238860 1.361946 -0.426581 -1.660568 -2.544933 -0.547200 0.000000 -37.612800
-1.145942 17.553092 0.277966 21.961524 83.719082 40.495811 -10.261507 -0.052762 -0.936821 -11.745303 2.755601 -39.905770 -0.839780 2.231766 43.240004 2.907580 16.669045 -4.692331 1.263999 0.000000 -27.948700 8.917907 -0.981846 0.192090 7.964373 0.060575 -10.820968 2.637993 1.312569 0.273628 -0.393133 -1.583069 -2.236439 -0.551700 -0.000000 -38.194000
-0.940088 17.544270 0.305590 21.916411 83.634919 40.426533 -10.116328 -0.140264 -0.747343 -11.765932 2.486968 -40.307088 -1.004143 2.019675 40.370206 2.905161 16.453339 -4.619565 1.321900 -0.000000 -28.133399 8.971211 -1.040510 0.092087 7.941491 -0.321037 -9.545238 2.630506 1.378822 -0.665537 -0.370151 -1.539946 -2.028928 -0.554200 -0.000000 -38.784800
-0.735797 17.528965 0.329643 21.212126 83.540424 39.673411 -9.991945 -0.225230 -0.562755 -11.683732 2.269969 -40.601305 -1.166396 1.796405 37.338581 2.887202 16.184725 -4.403826 1.414400 0.000000 -28.283301 8.999731 -1.090761 -0.030901 7.982084 -0.670746 -8.277529 2.629725 1.436185 -1.448306 -0.354486 -1.507952 -1.937616 -0.551200 -0.000001 -39.441500
-0.532576 17.507169 0.349984 19.879485 83.440122 38.283974 -9.890132 -0.309693 -0.375089 -11.494327 2.089054 -40.824721 -1.322417 1.562056 34.173601 2.849575 15.847425 -4.039039 1.538800 0.000000 -28.378700 9.000138 -1.132516 -0.166024 8.089214 -0.961084 -7.024005 2.635226 1.489882 -2.095365 -0.349634 -1.507872 -1.972738 -0.545100 -0.000000 -40.045000
-0.330263 17.479106 0.366977 18.047011 83.332814 36.383253 -9.808162 -0.393716 -0.185624 -11.212797 1.945871 -40.984755 -1.471652 1.316730 30.897244 2.786470 15.416220 -3.541185 1.682600 -0.000000 -28.421400 8.978582 -1.164683 -0.314753 8.248862 -1.210217 -5.780054 2.646570 1.539663 -2.614457 -0.352253 -1.520494 -2.126228 -0.533800 0.000001 -40.633499
-0.128410 17.445075 0.380974 15.814951 83.219235 34.075596 -9.742642 -0.476715 0.007337 -10.853371 1.839775 -41.102216 -1.613593 1.061527 27.538039 2.693244 14.868494 -2.926480 1.832000 -0.000001 -28.454800 8.940867 -1.187494 -0.473697 8.450337 -1.428253 -4.550669 2.663455 1.585964 -3.015502 -0.359439 -1.530511 -2.383682 -0.515700 0.000000 -41.190800
0.073453 17.405533 0.392345 13.272909 83.100134 31.453135 -9.689259 -0.558057 0.203424 -10.433838 1.774880 -41.198009 -1.748787 0.798605 24.129963 2.566206 14.182951 -2.217922 1.969799 -0.000000 -28.542500 8.893688 -1.201950 -0.640059 8.682089 -1.628322 -3.341144 2.685560 1.628257 -3.309231 -0.367318 -1.519955 -2.717767 -0.490200 0.000000 -41.751001
0.275799 17.361045 0.401461 10.489742 82.976229 28.586260 -9.643261 -0.637019 0.400505 -9.975185 1.761456 -41.292470 -1.878974 0.530966 20.711977 2.402942 13.340036 -1.445875 2.076600 0.000000 -28.761100 8.843595 -1.210049 -0.810865 8.933877 -1.823993 -2.157631 2.712766 1.665290 -3.503820 -0.371566 -1.470194 -3.094957 -0.457500 -0.000000 -42.357900
0.479096 17.312266 0.408562 7.505099 82.846778 25.514177 -9.599348 -0.713103 0.594405 -9.501107 1.814890 -41.403255 -2.006730 0.262123 17.327424 2.202796 12.324321 -0.646046 2.133000 -0.000000 -29.197200 8.796816 -1.214372 -0.982928 9.196466 -2.025952 -1.006364 2.744946 1.695126 -3.603569 -0.367984 -1.364578 -3.480267 -0.418900 -0.000000 -43.059800
0.683740 17.259882 0.413813 4.335295 82.710300 22.248816 -9.551670 -0.786289 0.776974 -9.040273 1.960225 -41.546469 -2.136173 -0.003149 14.033939 1.965742 11.116386 0.134259 2.118200 -0.000001 -29.902800 8.759312 -1.217997 -1.154560 9.462372 -2.246637 0.110645 2.782074 1.715159 -3.609499 -0.352505 -1.187628 -3.839500 -0.376300 0.000000 -43.927700
0.890006 17.204622 0.417328 0.990888 82.564315 18.795196 -9.493776 -0.857178 0.939409 -8.624425 2.220601 -41.734467 -2.271546 -0.260568 10.892544 1.694157 9.705343 0.847639 2.017400 -0.000000 -30.929700 8.736827 -1.224550 -1.323300 9.724545 -2.493174 1.190272 2.823656 1.722267 -3.516766 -0.322505 -0.929552 -4.148182 -0.331500 0.000000 -44.993300
1.098149 17.147187 0.419124 -2.511927 82.407443 15.162008 -9.419486 -0.927339 1.070261 -8.291892 2.623868 -41.983793 -2.418726 -0.504854 7.983288 1.390770 8.075717 1.438407 1.819900 -0.000001 -32.277100 8.734393 -1.238439 -1.487466 9.975729 -2.773113 2.231935 2.868884 1.712956 -3.317348 -0.276590 -0.584430 -4.391144 -0.285999 -0.000000 -46.283400
1.308372 17.088347 0.419346 -6.086342 82.241733 11.433590 -9.325219 -1.000023 1.165726 -8.067424 3.157216 -42.294211 -2.578487 -0.734706 5.359594 1.066061 6.260470 1.869758 1.535900 0.000000 -33.932200 8.754781 -1.264079 -1.645707 10.202637 -3.088070 3.228403 2.915735 1.683329 -2.998690 -0.215776 -0.154596 -4.568270 -0.240300 -0.000000 -47.767200
1.520781 17.028837 0.418126 -9.617021 82.071499 7.724093 -9.211809 -1.078415 1.223813 -7.968117 3.797647 -42.665871 -2.750030 -0.947704 3.081293 0.732752 4.307676 2.106470 1.186600 0.000000 -35.799500 8.796725 -1.305231 -1.798455 10.390659 -3.440152 4.172965 2.962147 1.630166 -2.548029 -0.142121 0.354437 -4.687961 -0.194600 0.000000 -49.423501
1.735483 16.969265 0.415669 -12.984026 81.900905 4.157109 -9.084493 -1.163846 1.246735 -7.996539 4.510177 -43.099769 -2.929878 -1.140236 1.203815 0.405646 2.286213 2.126673 0.804400 0.000000 -37.733300 8.854654 -1.363737 -1.945268 10.527217 -3.821050 5.056796 3.005811 1.551922 -1.953677 -0.059607 0.927400 -4.768057 -0.148800 0.000000 -51.194900
1.952608 16.910243 0.412343 -16.026159 81.733157 0.904239 -8.953492 -1.254724 1.249058 -8.111586 5.208840 -43.564100 -3.103795 -1.311370 -0.275619 0.107529 0.340064 1.950757 0.439400 0.000000 -39.585800 8.920462 -1.437352 -2.088270 10.596324 -4.218864 5.867967 3.043874 1.448456 -1.207291 0.027270 1.544654 -4.828033 -0.103400 0.000000 -53.031400
2.172361 16.852262 0.408586 -18.634052 81.567199 -1.912461 -8.830106 -1.345444 1.245222 -8.257221 5.819111 -44.026958 -3.257176 -1.457032 -1.365865 -0.143087 -1.389494 1.620993 0.132700 0.000000 -41.221100 8.986027 -1.521154 -2.227534 10.591255 -4.609969 6.598740 3.073538 1.321818 -0.308729 0.113332 2.177538 -4.884674 -0.060100 -0.000000 -54.880600
2.394957 16.795680 0.404786 -20.759030 81.399067 -4.232916 -8.723909 -1.427865 1.244398 -8.384000 6.298632 -44.471107 -3.380542 -1.569175 -2.063022 -0.336781 -2.802461 1.197459 -0.095100 -0.000001 -42.560100 9.045187 -1.609599 -2.359552 10.516203 -4.961155 7.247276 3.092065 1.175678 0.730685 0.193118 2.788691 -4.946701 -0.021000 0.000000 -56.704700
2.620690 16.740870 0.401509 -22.348725 81.225807 -5.990014 -8.644373 -1.493853 1.263405 -8.409295 6.568503 -44.846086 -3.456733 -1.644028 -2.424129 -0.461125 -3.757058 0.781990 -0.230500 0.000000 -43.607100 9.094145 -1.695536 -2.482394 10.376562 -5.237889 7.814252 3.096228 1.013945 1.889969 0.261986 3.339123 -5.010637 0.011800 -0.000000 -58.495399
